<?xml version="1.0" encoding="utf-8"?>
<!-- Generator: Adobe Illustrator 22.1.0, SVG Export Plug-In . SVG Version: 6.00 Build 0)  -->
<svg version="1.1" id="Layer_1" xmlns="http://www.w3.org/2000/svg" xmlns:xlink="http://www.w3.org/1999/xlink" x="0px" y="0px"
	 viewBox="0 0 24 24" style="enable-background:new 0 0 24 24;" xml:space="preserve">
<style type="text/css">
	.st0{fill:#DB3236;}
	.st1{fill:#FFFFFF;}
</style>
<path class="st0" d="M2.7,0h18.7C22.8,0,24,1.2,24,2.7v18.7c0,1.5-1.2,2.7-2.7,2.7H2.7C1.2,24,0,22.8,0,21.3V2.7C0,1.2,1.2,0,2.7,0"
	/>
<path class="st1" d="M7.5,17c-1.9-0.7-3.3-2.8-3.2-4.9c0-2.6,2.4-4.8,5-4.7c1.2-0.1,2.4,0.5,3.3,1.2c-0.4,0.5-0.8,0.9-1.3,1.3
	c-1.1-0.8-2.7-1-3.9-0.1c-1.6,1.1-1.7,3.8-0.1,5c1.5,1.4,4.4,0.7,4.8-1.4c-0.9,0-1.9,0-2.8,0c0-0.6,0-1.1,0-1.7c1.6,0,3.2,0,4.8,0
	c0.1,1.3-0.1,2.7-0.9,3.8C11.9,17.2,9.4,17.7,7.5,17"/>
<path class="st1" d="M17.1,10.2c0.5,0,0.9,0,1.4,0c0,0.5,0,0.9,0,1.4c0.5,0,0.9,0,1.4,0c0,0.5,0,0.9,0,1.4c-0.5,0-0.9,0-1.4,0
	c0,0.5,0,0.9,0,1.4c-0.5,0-0.9,0-1.4,0c0-0.5,0-0.9,0-1.4c-0.5,0-0.9,0-1.4,0c0-0.5,0-0.9,0-1.4c0.5,0,0.9,0,1.4,0
	C17.1,11.2,17.1,10.7,17.1,10.2z"/>
</svg>
