<svg id="Layer_1" data-name="Layer 1" xmlns="http://www.w3.org/2000/svg" viewBox="0 0 157.63 157.63"><defs><style>.cls-1{opacity:0.5;}.cls-2{fill:#75a6d9;}.cls-2,.cls-3{stroke:#231f20;stroke-miterlimit:10;stroke-width:3px;}.cls-3{fill:#6488a0;}</style></defs><title>Artboard 1</title><g class="cls-1"><path class="cls-2" d="M30.35,109.59a10.54,10.54,0,0,0-1.24-.4c-7.1-1.32-10.8-7.32-8.14-14a57.77,57.77,0,0,1,6.14-11.23c4-5.84,8.18-11.6,12.72-17,6.59-7.89,23-7.85,29.86.45A157.58,157.58,0,0,1,86.57,91.46,17.92,17.92,0,0,1,88.81,99c.23,5.15-3.11,8.83-8.3,10-.56.13-1.11.31-1.67.47l-5.78,0c-2.52-1-5.13-1.82-7.54-3-6.85-3.46-13.75-3.3-20.72-.59-2.93,1.14-5.78,2.49-8.66,3.74Z"/><path class="cls-2" d="M70.07,9.38c5.18,1.57,8.25,5.33,10.06,10.16a30.54,30.54,0,0,1-.53,23.75,20.22,20.22,0,0,1-2.25,3.8c-4.92,6.65-12.47,6.71-17.5.18-6.64-8.6-6.65-24.31-.08-33A14.13,14.13,0,0,1,67,9.39Z"/><path class="cls-2" d="M38,9.48c5.24,1.48,8.32,5.23,10.13,10.06a30.61,30.61,0,0,1-.73,24.37,17.8,17.8,0,0,1-3.1,4.55c-4.83,5.23-11.38,5-15.93-.49a24.65,24.65,0,0,1-5.29-13.43,30.43,30.43,0,0,1,1.8-14.84c1.9-4.79,4.84-8.6,10-10.21Z"/><path class="cls-2" d="M101.34,51.72A24.36,24.36,0,0,1,93.21,69.8c-3.14,2.84-6.81,4.83-11.12,3.06S76.62,67,76.68,62.74c.11-8,3.2-14.68,9.66-19.56a12.91,12.91,0,0,1,4.77-2.24c5.43-1.21,9.62,2.39,10.22,8.56C101.4,50.23,101.34,51,101.34,51.72Z"/><path class="cls-2" d="M3.82,52.66c.06-1.5,0-2.39.15-3.27C5,41.67,11.26,38.72,18,42.73c7.67,4.61,12.57,16.49,10.11,24.52-1.77,5.77-6.6,8-12,5.37-6.58-3.27-9.93-9.08-11.66-16A31.84,31.84,0,0,1,3.82,52.66Z"/></g><path class="cls-3" d="M69,144.39a10.94,10.94,0,0,0-1.44-.46c-8.24-1.54-12.53-8.5-9.45-16.3a67.16,67.16,0,0,1,7.13-13c4.65-6.77,9.49-13.46,14.75-19.76,7.65-9.16,26.67-9.11,34.65.52a181.76,181.76,0,0,1,19.59,28,20.66,20.66,0,0,1,2.6,8.72c.27,6-3.61,10.25-9.63,11.6-.65.14-1.29.36-1.94.54l-6.71,0c-2.92-1.16-6-2.1-8.74-3.52-8-4-16-3.83-24-.69-3.4,1.32-6.7,2.89-10,4.35Z"/><path class="cls-3" d="M115.06,28.11c6,1.82,9.56,6.18,11.67,11.78a35.44,35.44,0,0,1-.61,27.56,23.18,23.18,0,0,1-2.62,4.42c-5.7,7.71-14.47,7.78-20.31.21-7.69-10-7.71-28.21-.08-38.27a16.29,16.29,0,0,1,8.33-5.69Z"/><path class="cls-3" d="M77.89,28.22C84,29.94,87.54,34.29,89.64,39.9a35.43,35.43,0,0,1-.85,28.27,21,21,0,0,1-3.59,5.29c-5.61,6.06-13.2,5.78-18.48-.58C63,68.36,61.21,63,60.57,57.3a35.5,35.5,0,0,1,2.09-17.22c2.21-5.56,5.62-10,11.62-11.84Z"/><path class="cls-3" d="M151.34,77.24a28.23,28.23,0,0,1-9.43,21c-3.65,3.3-7.9,5.61-12.91,3.55s-6.35-6.85-6.28-11.74c.14-9.25,3.72-17,11.22-22.7a14.86,14.86,0,0,1,5.53-2.59c6.3-1.41,11.17,2.77,11.86,9.93C151.41,75.51,151.34,76.38,151.34,77.24Z"/><path class="cls-3" d="M38.18,78.32c.07-1.73,0-2.77.17-3.79,1.23-9,8.47-12.39,16.23-7.72,8.9,5.34,14.59,19.13,11.73,28.44-2,6.7-7.66,9.35-13.93,6.23C44.75,97.69,40.86,91,38.85,83A36.79,36.79,0,0,1,38.18,78.32Z"/></svg>