<?xml version="1.0" encoding="utf-8"?>
<!-- Generator: Adobe Illustrator 22.1.0, SVG Export Plug-In . SVG Version: 6.00 Build 0)  -->
<svg version="1.1" id="Layer_1" xmlns="http://www.w3.org/2000/svg" xmlns:xlink="http://www.w3.org/1999/xlink" x="0px" y="0px"
	 viewBox="0 0 24 24" style="enable-background:new 0 0 24 24;" xml:space="preserve">
<style type="text/css">
	.st0{fill:#FFFFFF;}
	.st1{fill:#3B5998;}
</style>
<path class="st0" d="M5.1,0.7h14.1c1.1,0,2,1.2,2,2.6v18.1c0,1.4-0.9,2.6-2,2.6H5.1c-1.1,0-2-1.2-2-2.6V3.3C3.1,1.9,4,0.7,5.1,0.7"
	/>
<path class="st1" d="M2.7,0h18.7C22.8,0,24,1.2,24,2.7v18.7c0,1.5-1.2,2.7-2.7,2.7H2.7C1.2,24,0,22.8,0,21.3V2.7C0,1.2,1.2,0,2.7,0
	 M20,2.7h-3.3c-2.6,0-4.7,2.1-4.7,4.7v3.3H9.3v4H12V24h4v-9.3h4v-4h-4V8c0-0.7,0.6-1.3,1.3-1.3H20V2.7z"/>
</svg>
