<?xml version="1.0" encoding="utf-8"?>
<!-- Generator: Adobe Illustrator 22.0.1, SVG Export Plug-In . SVG Version: 6.00 Build 0)  -->
<svg version="1.1" id="Layer_1" xmlns="http://www.w3.org/2000/svg" xmlns:xlink="http://www.w3.org/1999/xlink" x="0px" y="0px"
	 viewBox="0 0 794.4 664" style="enable-background:new 0 0 794.4 664;" xml:space="preserve">
<style type="text/css">
	.st0{fill:#201F1F;}
	.st1{fill:#9BD9EF;}
	.st2{fill:#7CB9E5;}
	.st3{fill:#9CD9EF;}
	.st4{fill:#030303;}
	.st5{fill:#F3C9B0;}
	.st6{fill:#C39A85;}
	.st7{fill:#FEFEFE;}
	.st8{fill:#FCFCFC;}
	.st9{fill:#99D5EB;}
	.st10{fill:#98D4E9;}
	.st11{fill:#99D6EB;}
	.st12{fill:#98D4EA;}
	.st13{fill:#97D3E8;}
	.st14{fill:#95CFE4;}
	.st15{fill:#AC5C51;}
	.st16{fill:#AB5C51;}
	.st17{fill:#FDFCFC;}
	.st18{fill:#FDFBFB;}
</style>
<g>
	<path class="st0" d="M336,376.9c-9.6-1.6-19.2-3.1-28.8-5c-25-4.8-49-12.2-70.9-25.6c-18.4-11.3-33.3-26-43.9-44.8
		c-1.4-2.6-2.9-3.4-5.8-3.3c-53.4,2.3-106.2,8.4-157.9,22.5c-1.1,0.3-3.1,1.9-3.8-0.5c-0.6-2.3,1.8-1.9,2.9-2.2
		c32.2-8.8,64.9-14.5,98-18.2c19.4-2.1,38.8-3.8,58.3-4.2c4.5-0.1,3.8-1.5,2.9-4.9c-2.1-7.4-6.4-9.3-14-9.4
		c-48.3-0.9-96.2,1.5-143.8,10.3c-1.8,0.3-5,2.4-5.6-0.3c-0.6-2.9,3-2,4.8-2.4c47.4-8.9,95.2-11.6,143.3-10.3c3.2,0.1,6.3,0,9.9,0
		c-2.7-9.2-5.5-18.2-6.9-27.5c-4.8-31.1-7.2-62.2,2.4-93c5.5-17.7,14.5-33.5,26.8-47.4c2.4-2.7,2.9-4.7,1.8-8.2
		c-9.3-29.3-6.2-58.1,4.3-86.5c1.1-3,3.3-2.9,5.6-3c12-0.5,23.5,2.4,34.6,6.4c19.2,6.9,36.8,16.9,53.7,28.3c2.5,1.7,4.7,2.2,7.8,1.4
		c52.9-13.3,106-14,159.3-2c3.5,0.8,5.9,0.2,8.7-1.7c19.7-12.8,40.2-24.1,63.2-30c7.3-1.9,14.7-2.9,22.3-2.5c2.9,0.1,4.4,1.2,5.4,4
		c9.5,26.3,12.7,53,5.5,80.4c-0.7,2.6-0.1,4.2,1.7,6.1c26.4,27.8,38.7,61.1,38.4,99.3c-0.1,25.5-1.5,50.9-8,76c4.2,0,8.1,0.1,12.1,0
		c48.8-1.4,97.2,1.3,145.3,10.2c0.5,0.1,1.1,0,1.5,0.2c1.2,0.8,4.1-0.4,3.6,2.1c-0.5,2.6-2.8,0.9-4.2,0.6
		c-50.7-9.3-101.8-12-153.3-10.2c-4.8,0.2-6.9,1.6-8.1,6.1c-2.1,7.6-2.4,7.5,5.6,7.8c52.4,2,104.2,8.5,154.9,22.2
		c1,0.3,1.9,0.5,2.9,0.8c0.6,0.2,1.3,0.5,1,1.3c-0.3,0.7-0.5,1.6-1.7,1.3c-2.1-0.6-4.2-1-6.3-1.6c-33.7-9-68-14.5-102.6-17.9
		c-17.8-1.8-35.5-2.7-53.3-3.6c-2.1-0.1-4.1-0.6-5.3,2.2c-14.5,31.8-40.4,50.2-72.4,61.6c-21.5,7.6-43.7,11.6-66.2,14
		c-1.1,0.1-2.4-0.2-3.3,0.8c-1.8,2-4.2,1.7-6.5,1.7c-35.1,0-70.1,0.1-105.2,0C343.1,378.5,339.4,378.6,336,376.9z"/>
	<path class="st0" d="M309.2,419c3.1-9.8,6.3-19.6,12.5-28c0.5-0.7,1-1.3,1.6-1.9c9-5,19.1-5.3,29-6.5c12.6-1.5,25.3-0.4,37.8-1.2
		c14-0.9,27.9-0.2,41.7,1.3c15.9,1.7,30.4,7.1,41.7,19.1c4.5,4.7,7.2,10.6,10.9,15.9c2.3,7.9,2.3,16,2.4,24.1
		c0.2,21.3,0,42.5,0.1,63.8c0,1.8,0.2,3.6,0.3,5.4c1.6,1.6,1.4,3.6,1.4,5.6c0.1,4.5-0.2,9,0.1,13.4c0.6,11.7,5.8,20.9,16,27
		c2.4,1.5,5.1,2.4,7.2,4.4c3.9,3.5,4.3,7,1.6,11.3c-5.4,4.2-11.8,2.8-17.7,2.4c-7.1-0.5-14.1-1.8-20.7-4.9
		c-16.9-6.9-24.7-19.9-25.1-37.8c-0.2-8.7-0.1-17.3,0-26c-0.2-15.1,0-30.2-0.1-45.4c-0.1-7.7-1.1-15.2-3.8-22.5
		c-0.8-2.1-1.5-4.4-4-6.7c-0.3,25.2,0.1,49.5-0.2,73.8c0.1,17.3,0,34.6,0,51.9c0,11.3,2.8,21.4,12.6,28.4c4.9,7.7,3.4,12.3-5,15.8
		c-1.3,0.4-2.7,0.5-4.1,0.5c-11.8-1.4-22.2-6.2-31.6-13.3c-9-8.2-13.1-18.2-13.1-30.6c0.2-42.7,0.4-85.5,0.3-128.2
		c0-2.5,0.2-5-0.2-7.4c-2.4-4.4-3.6-4.5-6.7-0.7c-0.5,2.3-0.3,4.7-0.3,7c-0.1,43.1,0.2,86.1,0.2,129.2c0,12.1-4.3,22.4-13,30.8
		c-10.7,8.1-22.3,13.8-36.2,13.2c-0.6,0-1.1-0.2-1.7-0.3c-7.2-4.5-7.7-8.6-2.1-16.2c9.8-6,12.2-15.3,12-26.1
		c-0.3-17.9-0.1-35.8,0-53.7c-0.2-24.7,0.1-49.5-0.2-74.6c-2.8,1.2-3.3,3.4-4,5.3c-2.7,7.2-3.8,14.8-3.8,22.5
		c-0.1,15.8,0.1,31.6-0.1,47.3c-0.1,9,0.2,18-0.1,27c-0.5,17.5-8.7,30-25,37c-11.3,4.5-23,5.8-35,4.8c-3.2-0.9-6-2.4-6.4-6.1
		c-0.4-3.9,1.8-6.6,5-8.5c2.7-1.6,5.7-2.7,8.4-4.4c9.4-5.5,14.2-13.7,14.2-24.6c0-4.7,0-9.3,0-14c0-2-0.2-4,1.4-5.6
		c0.4-17.3,0.6-34.7-0.1-52c-0.7-12.9-1.2-25.9,0.9-38.8C308.2,420.4,308.7,419.7,309.2,419z"/>
	<path class="st1" d="M513,571.7c1.9-4.7,0.6-8.5-4.5-10.8c-15.8-7.3-22.2-20-21.7-36.9c0.1-4.3,0.2-8.6,0.3-12.9
		c31.6,5.3,62.6,12.5,91,28c9.5,5.2,18.4,11.3,25,20.2c10,13.5,9.2,28.3-2.4,40.8c-11.2,12-25.3,19.4-40.1,25.5
		c-23,9.5-47.1,15.1-71.5,19.3c-0.6,0.1-1.3,0-2,0c-1.4-1.5-1.3-3.3-1.3-5.2c0-11.1-0.2-22.2,0-33.3c0.3-13.5,9.8-26.4,22.5-31.2
		C510.3,574.4,511.7,573.2,513,571.7z"/>
	<path class="st1" d="M307.3,512c0.5,7.8,0.7,15.6-0.1,23.3c-1.2,11.4-7.9,19-17.9,23.8c-1.8,0.9-3.7,1.5-5.4,2.5
		c-2.8,1.5-4.7,3.7-4.7,7c0,3.4,2.7,4.2,5.1,5.4c15.1,5,24.3,17.7,24.4,33.7c0,10,0,19.9,0,29.9c0,2.1,0.4,4.4-1.4,6.1
		c-33.2-5.8-65.7-13.8-94.4-32.6c-6.3-4.1-11.9-9.1-16.2-15.3c-9.5-13.7-8.3-27.7,3-40c10.5-11.4,23.9-18.5,37.8-24.5
		C259.8,521.9,283.3,516.1,307.3,512z"/>
	<path class="st0" d="M305.2,460c-40,9.2-79.7,2-102.4-38.8c-2.9-5.2-5.9-10.4-9-15.5c-6.8-11.2-15.8-20-27.8-25.7
		c-4.2-2-8.3-4.3-11.4-7.9c-3.6-4-2.8-7.3,2.2-9.2c8-3.1,16.1-1.9,23.9,0.8c15.2,5.1,26.4,15.1,34.9,28.4c4.7,7.3,9.4,14.5,16,20.3
		c19.8,17.6,42.3,18.9,66.3,11c3.1-1,6.2-2.3,9.3-3.5c1.7,2.1,0.6,4-0.3,5.9c-6.6,3.5-6.6,3.5-1,8.6c0.2,0.2,0.3,0.6,0.4,0.9
		c0.9,7,0.3,14.1,0.4,21.1C306.6,457.8,306.1,459,305.2,460z"/>
	<path class="st2" d="M513,571.7c-0.9,2.8-3.3,4-5.7,5.1c-13.1,6-19.4,16.7-20.1,30.6c-0.6,12.4-0.1,24.9-0.2,37.4
		c-11.2,2-22.5,3.6-33.8,4.3c-4.1,0.5-3.5-2.8-3.6-4.9c-0.3-7.6-0.1-15.3-0.1-22.9c-0.1-6.8,0.3-13.6-0.6-20.4
		c7.6-3.5,8.7-6.3,5-13.7c4.5-9.1,12.6-13.8,21.2-18c9.1,3.3,18.4,5.1,28,5.1C506.8,574.2,510.1,573.8,513,571.7z"/>
	<path class="st2" d="M307.2,643.9c0-12.1,0.1-24.2-0.1-36.3c-0.2-14.9-7.4-25.3-20.8-31.6c-0.9-0.4-1.7-0.9-2.2-1.9
		c12,0.5,23.7-0.7,35-5c9.2,3.5,16.9,8.9,21.7,17.8c-4.1,7.3-3.7,10,2.3,14.1c1.6,1.8,1.6,3.9,1.6,6.1c0,11.9,0.1,23.8,0,35.7
		c0,2.1,0.1,4.3-1.7,6C331,648,319,646.7,307.2,643.9z"/>
	<path class="st1" d="M401.4,421c1.3,1.8,0.7,3.9,0.7,5.8c-0.1,42.7,0,85.4-0.4,128.1c-0.1,13.4,3.5,24.8,13.7,33.8
		c0.6,2.4-0.8,4.1-1.9,5.9c-6,9.3-8.5,19.7-8.8,30.6c-0.2,6.8,0,13.6-0.1,20.4c0,2.1,0.3,4.4-1.4,6.1c-8.7-0.4-17.5,1.2-26.2-0.7
		c2.7-2.5,6-1.4,9-1.5c3-0.1,5-1,4.6-4.3c-1.2-11.4,0-22.9-2.5-34.2c-1.4-6.1-3.7-11.7-7-16.9c-1-1.6-2.6-3.1-2.1-5.4
		c9.9-9.4,13.5-21.1,13.4-34.6c-0.3-42.8-0.2-85.5-0.1-128.3c0-1.9-0.7-4,0.8-5.8c2.3,2.3,1.7,5.3,1.7,8c0.1,22.5,0,44.9,0.1,67.4
		c0,2.2-1.2,6.1,2.1,6.2c3.8,0.1,2.6-4,2.6-6.3c0.1-22.1,0-44.2,0.1-66.4C399.6,426.3,398.9,423.3,401.4,421z"/>
	<path class="st2" d="M403.2,651.9c0.4-13.7-1.4-27.5,1.8-41.2c1.9-8.1,6-15,10.3-21.9c9,6.4,18.8,10.8,29.9,12.4
		c0.9,1.2,0.7,2.6,0.3,3.8c-4.1,12.2-4,24.8-3.8,37.5c0,2.6,0.4,5.4-1.4,7.7C427.9,651.5,415.6,652.3,403.2,651.9z"/>
	<path class="st2" d="M379.1,588.8c8.4,10.7,12.2,22.9,12.2,36.5c0,7.1,0.5,14.2,0.9,21.4c0.2,3.2-0.8,4.6-4.2,4.4
		c-3.6-0.2-7.3,0-11,0.1c-7.6,0-15.2-0.1-22.8-1.3c-1.9-2-1.4-4.6-1.5-7.1c-0.3-8.2,0.6-16.5-0.6-24.8c-0.9-6.4-1.7-13-7.9-16.9
		C357.4,601.4,368.7,596.4,379.1,588.8z"/>
	<path d="M484.4,417.7c-1.1,3.4-1.6,0.3-2-0.3c-4.6-8.1-9.7-15.8-17.5-21.4c-10-7.1-21.4-10.1-33.3-12.1c-8.9-1.5-18-1.7-26.7-1.4
		c-15.4,0.5-30.9-0.2-46.3,1.3c-8.7,0.9-17.4,1.7-26.1,3.2c-3.1,0.5-5.8,3.1-9.2,2.2c3.5-4.9,7.8-8.9,12.7-12.2
		c3.1-1.8,6.1,0.1,9.2,0.1c37.7-0.1,75.5-0.1,113.2-0.1C472.2,387.2,481.1,400.6,484.4,417.7z"/>
	<path class="st1" d="M440.3,650.1c0.2-12.9-1.3-25.8,1.9-38.5c0.9-3.5,2-7,3-10.4c1.3-0.1,2.5-0.2,3.8-0.3c2.9,0.6,2.2,2.9,2.2,4.7
		c0,12.9,0,25.8,0.1,38.7c0,1.8-0.9,4.2,2,4.8C449,650.8,444.6,649.6,440.3,650.1z"/>
	<path class="st1" d="M344.2,601.1c5.7,0.3,6.9,4.4,8.1,9.1c2.8,11.3,1.5,22.8,1.9,34.1c0.1,1.8,0,3.7,0.1,5.5
		c-3.7-0.3-7.4-0.7-11.1-1c0-15.9,0.1-31.9,0.1-47.8C343.5,601.1,343.9,601.1,344.2,601.1z"/>
	<path class="st3" d="M160.9,379.9c1.8,6.6,3.6,13.2,5.4,19.9c0.9,3.2,0.3,6-2.2,8.1c-1.9,1.6-4.3,1.6-6.5,0.4
		c-3.2-1.6-4.1-4.6-3.4-7.6c1.6-7,3.8-13.9,5.7-20.9C160.3,379.8,160.6,379.8,160.9,379.9z"/>
	<path class="st4" d="M306.1,426.2c0.3-2.1,0.7-4.2,1-6.3c0.3-1.2,1.3-0.8,2.1-0.9c-1.3,12.4-0.9,24.8-1.1,37.2
		c0,1.3-0.6,2.5-0.9,3.8c-0.7,0-1.3,0-2,0c0-8.7,0-17.4,0-26.1C303.2,431.1,304.1,428.5,306.1,426.2z"/>
	<path class="st5" d="M562.1,254c0.9,19-1.3,37.6-9.2,55.1c-11.9,26.3-34.5,38.6-61.2,44.8c-20.9,4.9-42.1,6-63.4,6.5
		c-35.5,0.8-70.9,1.1-106.1-4.5c-17.5-2.8-34.4-7.4-50.1-15.9c-25.3-13.8-38.8-35.5-42.8-63.7c-1-7.1-1.6-14.2-1-21.4
		c2.2-22.4,14-39.4,31-53.2c11.5-9.4,25.3-12.4,39.7-13.1c18.6-0.9,37.2,0.9,55.8,2.5c23.7,2.1,47.4,3,71.2,0.7
		c21.8-2.1,43.7-4.4,65.7-3.4c17.6,0.8,33.5,6,46.1,18.7C550.7,220.2,560.3,235.1,562.1,254z"/>
	<path class="st6" d="M562.1,254c-2.6-10.8-6.2-21.3-12.7-30.5c-11.2-16-24.9-28.5-45-31.9c-14.5-2.5-29.1-2-43.7-0.9
		c-8.8,0.6-17.5,1.8-26.2,2.2c-15.1,0.7-30.1,2.8-45.2,2c-16.4-0.9-32.7-2.1-49.1-3.5c-18.8-1.6-37.8-3.1-56.6,0.7
		c-17.1,3.5-29.5,13.8-39.6,27.3c-8,10.6-13.2,22.5-15.7,35.6c-0.2-16.5,6.8-30.1,16.3-42.9c15.2-20.5,36-28.9,60.9-29.2
		c21.3-0.3,42.5,1.7,63.8,2.8c18.3,0.9,36.6,0.9,54.9-0.3c22.6-1.5,45.1-3.6,67.8-2.4c32.7,1.8,63.1,28.7,69.3,61.1
		C561.9,247.4,562.5,250.7,562.1,254z"/>
	<path class="st1" d="M340.9,587c-4.4-3.1-6.8-8.3-11.4-11.3c-3.4-2.2-7.5-3.4-10.3-6.6c17.6-7.9,24.7-22,24-40.7
		c-0.3-7.1,0.1-14.2,0.1-21.4c3.4-1.8,7-2.9,10.7-1c0,19.7,0.1,39.5,0.1,59.2C354.1,575.1,349.7,582.4,340.9,587z"/>
	<path class="st1" d="M475.2,569.1c-1.6,3.6-5.6,3.8-8.4,5.7c-5,3.4-8.5,8.3-12.8,12.3c-10.5-5.5-13.3-15.4-13.6-26
		c-0.5-18.4-0.1-36.8,0-55.2c3.8-2.1,7.4-2.1,10.7,0.9c0.1,8.8,0.1,17.6,0.3,26.4C451.6,550.3,459.8,562.1,475.2,569.1z"/>
	<path class="st7" d="M354,506c-3.6,0.3-7.2,0.7-10.7,1c0.1-20-1.2-39.9,0.9-59.9c0.5-5,1.9-9.8,4.3-14.2c1.2-2.3,2.5-4.6,5.6-6.2
		C354,453.6,354,479.8,354,506z"/>
	<path class="st7" d="M451,506.9c-3.5-1.1-7.1-0.8-10.7-0.9c0-25.8,0-51.6,0-77.7c2.9,0.8,3.7,3.2,4.9,5.2c4,7.1,5.6,15.1,5.7,23
		C451.3,473.2,451,490.1,451,506.9z"/>
	<path class="st8" d="M401.4,421c-0.1,26.1-0.2,52.2-0.2,78.3c0,2.5,0.4,4.6-3.6,5c-4,0.4-4.6-0.8-4.6-4.4c0.1-26.6,0-53.2,0-79.8
		C396.4,416.5,398.9,416.8,401.4,421z"/>
	<path class="st9" d="M221,408.5c3-0.1,6.9,3.7,6.9,6.8c0,2.3-1.2,3.9-3.7,3.7c-3.8-0.4-5.9-2.9-6.5-6.5
		C217.3,410.2,218.5,408.7,221,408.5z"/>
	<path class="st10" d="M241.2,433c-4.2-0.2-8.1-3.4-7.8-6c0.3-2.8,2.3-3.4,4.7-3.2c3.5,0.3,6.2,2.1,6.6,5.7
		C245.1,432.1,242.9,433,241.2,433z"/>
	<path class="st11" d="M260.2,439.1c-2.8-0.4-5.9-1.1-6-4.9c-0.1-3.1,2.6-3.5,5.1-3.5c3.2,0,6.4,1,6.6,4.6
		C266.1,438.5,263.2,439,260.2,439.1z"/>
	<path class="st11" d="M282.7,439.4c-2.6-0.3-5.6-0.6-5.7-4.1c0-3.4,2.9-4.2,5.7-4.2c3-0.1,6.2,0.9,6.1,4.4
		C288.8,438.7,285.6,439.2,282.7,439.4z"/>
	<path class="st12" d="M210.4,402.2c-3.3-0.5-5.1-2.8-5.5-6.2c-0.3-2.2,0.4-3.9,3.1-4c2.8-0.1,6.2,3.6,6.1,6.7
		C213.9,400.6,213,402.1,210.4,402.2z"/>
	<path class="st13" d="M195.5,378.2c3,0.7,5.2,2.2,5.5,5.5c0.2,1.8-1.2,2.7-2.9,2.7c-3.1-0.1-5-1.9-5.5-4.8
		C192.3,379.6,193.5,378.5,195.5,378.2z"/>
	<path class="st13" d="M306.1,426.2c-0.3,2.6-0.6,5.2-0.9,7.8c-3,0.2-6.3-0.2-6.1-3.9C299.3,426.1,302.6,425.4,306.1,426.2z"/>
	<path class="st14" d="M184.8,375.9c-2.1-0.5-4.2-1.4-4.4-3.9c-0.1-1.9,1.6-2.3,3.2-2.2c2.4,0.2,4.3,1.2,4.5,3.8
		C188.2,375.4,186.5,375.9,184.8,375.9z"/>
	<path class="st7" d="M526.2,267.4c-0.6,11-3.9,25.1-15.1,36.3c-13.2,13.1-31.4,11.5-42.7-3.4c-15.7-20.7-15.7-57.4,1.4-77.2
		c13.1-15.1,32.1-15,45.3,2.6C522.8,236.2,526.2,248.5,526.2,267.4z"/>
	<path class="st7" d="M339.3,261.2c0.3,14.8-2.6,27.2-10.8,38c-13.9,18.2-33.5,18.3-47.4,0.1c-16.1-21.1-14.6-61,4.8-78.7
		c13.7-12.5,30.1-10,40.9,3.2C336.2,235.1,339.3,246.2,339.3,261.2z"/>
	<path class="st15" d="M395.5,343.2c-8.6,0-16.2-4.9-19.5-12.4c-0.9-2.1-1.3-4,1-5.1c2.3-1.1,3.3,0.8,4.1,2.5
		c6.2,13.1,23.3,12.7,29-0.2c0.8-1.7,1.8-3.5,4.1-2.2c2,1.1,1.8,2.8,1,4.7C412.3,338.1,404.4,343.2,395.5,343.2z"/>
	<path class="st15" d="M404.3,307.1c0,4.5-3.9,8.6-8.3,8.8c-4.6,0.1-8.8-4.1-8.8-8.8c0.1-4.7,3.8-8.7,8.3-8.8
		C400.1,298.1,404.2,302.2,404.3,307.1z"/>
	<path class="st16" d="M464.8,263.1c0.1-10.1,2.4-19.5,9.6-27c8.2-8.6,19.6-8.4,27.6,0.4c12,13.2,12.3,39.2,0.6,52.7
		c-8.9,10.2-21.5,9.9-29.9-0.8C466.9,281,464.8,272.4,464.8,263.1z"/>
	<path class="st16" d="M284.9,263.1c0-10,2.4-19.2,9.3-26.7c8.3-9,19.7-8.9,27.9,0.1c12,13.1,12.2,39.4,0.5,52.7
		c-8.9,10.1-21.1,9.9-29.5-0.6C287,281.2,284.9,272.5,284.9,263.1z"/>
	<path class="st17" d="M486.5,248.3c-0.4,3.6-2.4,5.8-6.1,5.7c-3.7-0.2-5.6-2.5-5.4-6.2c0.2-3.6,2.5-5.5,5.8-5.5
		C484.3,242.3,486.4,244.6,486.5,248.3z"/>
	<path class="st18" d="M298.2,254.9c-3.5,0-6.6-3.1-6.7-6.7c0-3.7,2.9-6.5,6.7-6.5c3.8,0,6.7,2.8,6.7,6.5
		C304.9,251.7,301.7,254.9,298.2,254.9z"/>
</g>
</svg>
