<?xml version="1.0" encoding="utf-8"?>
<!-- Generator: Adobe Illustrator 22.1.0, SVG Export Plug-In . SVG Version: 6.00 Build 0)  -->
<svg version="1.1" id="Layer_1" xmlns="http://www.w3.org/2000/svg" xmlns:xlink="http://www.w3.org/1999/xlink" x="0px" y="0px"
	 viewBox="0 0 24 24" style="enable-background:new 0 0 24 24;" xml:space="preserve">
<style type="text/css">
	.st0{fill:#333333;}
	.st1{fill:#FFFFFF;}
</style>
<path class="st0" d="M2.7,0h18.7C22.8,0,24,1.2,24,2.7v18.7c0,1.5-1.2,2.7-2.7,2.7H2.7C1.2,24,0,22.8,0,21.3V2.7C0,1.2,1.2,0,2.7,0"
	/>
<path class="st1" d="M12,3.4c-4.7,0-8.5,3.8-8.5,8.5c0,3.8,2.5,7,5.8,8.1c0.4,0.1,0.6-0.2,0.6-0.4c0-0.2,0-0.7,0-1.4
	C7.5,18.7,7,17.1,7,17.1c-0.4-1-0.9-1.3-0.9-1.3c-0.8-0.5,0.1-0.5,0.1-0.5c0.9,0.1,1.3,0.9,1.3,0.9c0.7,1.3,2,0.9,2.5,0.7
	c0.1-0.6,0.3-0.9,0.5-1.1c-1.9-0.2-3.9-0.9-3.9-4.2c0-0.9,0.3-1.7,0.9-2.3C7.3,9,7,8.1,7.5,7c0,0,0.7-0.2,2.3,0.9
	c0.7-0.2,1.4-0.3,2.1-0.3s1.5,0.1,2.1,0.3C15.8,6.7,16.5,7,16.5,7c0.5,1.2,0.2,2,0.1,2.3c0.6,0.6,0.9,1.4,0.9,2.3c0,3.3-2,4-3.9,4.2
	c0.3,0.3,0.6,0.8,0.6,1.6c0,1.1,0,2.1,0,2.3c0,0.2,0.1,0.5,0.6,0.4c3.4-1.1,5.8-4.3,5.8-8.1C20.5,7.2,16.7,3.4,12,3.4z"/>
</svg>
